REM DIRINDEX 1\5,1\2\6,1\2\7,1\3\8,1\3\9,1\4\10,1\4\11,1\4\12
REM DIRNAME cjc026,folder01,folder02,folder03,folder04,folder05,folder06,folder07,folder08,folder09,folder10,folder11
TITLE ""
FILE "EJE_DB3000_5th_5C_23.mp3" MP3
  TRACK 01 AUDIO
    TITLE "0:"
    INDEX 01 00:00:00
  TRACK 02 AUDIO
    TITLE "10:cjc026_11022"
    INDEX 01 00:00:08
  TRACK 03 AUDIO
    TITLE "0:"
    INDEX 01 00:05:46
  TRACK 04 AUDIO
    TITLE "11:cjc026_11023"
    INDEX 01 00:06:09
  TRACK 05 AUDIO
    TITLE "0:"
    INDEX 01 00:08:10
  TRACK 06 AUDIO
    TITLE "12:cjc026_11024"
    INDEX 01 00:08:45
  TRACK 07 AUDIO
    TITLE "0:"
    INDEX 01 00:14:08
  TRACK 08 AUDIO
    TITLE "10:cjc026_11025"
    INDEX 01 00:14:46
  TRACK 09 AUDIO
    TITLE "0:"
    INDEX 01 00:15:71
  TRACK 10 AUDIO
    TITLE "11:cjc026_11026"
    INDEX 01 00:16:31
  TRACK 11 AUDIO
    TITLE "0:"
    INDEX 01 00:18:00
  TRACK 12 AUDIO
    TITLE "12:cjc026_11027"
    INDEX 01 00:18:32
  TRACK 13 AUDIO
    TITLE "0:"
    INDEX 01 00:19:60
  TRACK 14 AUDIO
    TITLE "10:cjc026_11028"
    INDEX 01 00:20:20
  TRACK 15 AUDIO
    TITLE "0:"
    INDEX 01 00:22:53
  TRACK 16 AUDIO
    TITLE "11:cjc026_11029"
    INDEX 01 00:23:13
  TRACK 17 AUDIO
    TITLE "0:"
    INDEX 01 00:25:55
  TRACK 18 AUDIO
    TITLE "12:cjc026_11030"
    INDEX 01 00:26:15
  TRACK 19 AUDIO
    TITLE "0:"
    INDEX 01 00:28:46
  TRACK 20 AUDIO
    TITLE "10:cjc026_11031"
    INDEX 01 00:29:09
  TRACK 21 AUDIO
    TITLE "0:"
    INDEX 01 00:30:42
  TRACK 22 AUDIO
    TITLE "11:cjc026_11032"
    INDEX 01 00:31:02
  TRACK 23 AUDIO
    TITLE "0:"
    INDEX 01 00:33:41
  TRACK 24 AUDIO
    TITLE "12:cjc026_11033"
    INDEX 01 00:34:01
  TRACK 25 AUDIO
    TITLE "0:"
    INDEX 01 00:35:31
  TRACK 26 AUDIO
    TITLE "10:cjc026_11034"
    INDEX 01 00:35:69
  TRACK 27 AUDIO
    TITLE "0:"
    INDEX 01 00:38:60
  TRACK 28 AUDIO
    TITLE "11:cjc026_11035"
    INDEX 01 00:39:23
  TRACK 29 AUDIO
    TITLE "0:"
    INDEX 01 00:41:70
  TRACK 30 AUDIO
    TITLE "12:cjc026_11036"
    INDEX 01 00:42:33
  TRACK 31 AUDIO
    TITLE "0:"
    INDEX 01 00:45:24
  TRACK 32 AUDIO
    TITLE "10:cjc026_11037"
    INDEX 01 00:45:62
  TRACK 33 AUDIO
    TITLE "0:"
    INDEX 01 00:47:30
  TRACK 34 AUDIO
    TITLE "11:cjc026_11038"
    INDEX 01 00:47:68
  TRACK 35 AUDIO
    TITLE "0:"
    INDEX 01 00:49:72
  TRACK 36 AUDIO
    TITLE "12:cjc026_11039"
    INDEX 01 00:50:32
  TRACK 37 AUDIO
    TITLE "0:"
    INDEX 01 00:52:01
  TRACK 38 AUDIO
    TITLE "10:cjc026_11040"
    INDEX 01 00:52:42
  TRACK 39 AUDIO
    TITLE "0:"
    INDEX 01 00:54:18
  TRACK 40 AUDIO
    TITLE "11:cjc026_11041"
    INDEX 01 00:54:56
  TRACK 41 AUDIO
    TITLE "0:"
    INDEX 01 00:55:73
  TRACK 42 AUDIO
    TITLE "12:cjc026_11042"
    INDEX 01 00:56:33
  TRACK 43 AUDIO
    TITLE "0:"
    INDEX 01 00:58:10
  TRACK 44 AUDIO
    TITLE "10:cjc026_11043"
    INDEX 01 00:58:51
  TRACK 45 AUDIO
    TITLE "0:"
    INDEX 01 01:00:46
  TRACK 46 AUDIO
    TITLE "11:cjc026_11044"
    INDEX 01 01:01:09
  TRACK 47 AUDIO
    TITLE "0:"
    INDEX 01 01:03:08
  TRACK 48 AUDIO
    TITLE "12:cjc026_11045"
    INDEX 01 01:03:43
  TRACK 49 AUDIO
    TITLE "0:"
    INDEX 01 01:05:39
  TRACK 50 AUDIO
    TITLE "10:cjc026_11046"
    INDEX 01 01:06:04
  TRACK 51 AUDIO
    TITLE "0:"
    INDEX 01 01:07:64
  TRACK 52 AUDIO
    TITLE "11:cjc026_11047"
    INDEX 01 01:08:27
  TRACK 53 AUDIO
    TITLE "0:"
    INDEX 01 01:09:49
  TRACK 54 AUDIO
    TITLE "12:cjc026_11048"
    INDEX 01 01:10:15
  TRACK 55 AUDIO
    TITLE "0:"
    INDEX 01 01:12:00
  TRACK 56 AUDIO
    TITLE "10:cjc026_11049"
    INDEX 01 01:12:35
  TRACK 57 AUDIO
    TITLE "0:"
    INDEX 01 01:14:28
  TRACK 58 AUDIO
    TITLE "11:cjc026_11050"
    INDEX 01 01:14:66
  TRACK 59 AUDIO
    TITLE "0:"
    INDEX 01 01:16:45
  TRACK 60 AUDIO
    TITLE "12:cjc026_11051"
    INDEX 01 01:17:05
  TRACK 61 AUDIO
    TITLE "0:"
    INDEX 01 01:18:71
  TRACK 62 AUDIO
    TITLE "10:cjc026_11052"
    INDEX 01 01:19:33
  TRACK 63 AUDIO
    TITLE "0:"
    INDEX 01 01:21:54
  TRACK 64 AUDIO
    TITLE "11:cjc026_11053"
    INDEX 01 01:22:16
  TRACK 65 AUDIO
    TITLE "0:"
    INDEX 01 01:24:07
  TRACK 66 AUDIO
    TITLE "12:cjc026_11054"
    INDEX 01 01:24:45
  TRACK 67 AUDIO
    TITLE "0:"
    INDEX 01 01:26:65
  TRACK 68 AUDIO
    TITLE "10:cjc026_11055"
    INDEX 01 01:27:25
  TRACK 69 AUDIO
    TITLE "0:"
    INDEX 01 01:28:66
  TRACK 70 AUDIO
    TITLE "11:cjc026_11056"
    INDEX 01 01:29:29
  TRACK 71 AUDIO
    TITLE "0:"
    INDEX 01 01:31:14
  TRACK 72 AUDIO
    TITLE "12:cjc026_11057"
    INDEX 01 01:31:49
  TRACK 73 AUDIO
    TITLE "0:"
    INDEX 01 01:33:18
  TRACK 74 AUDIO
    TITLE "10:cjc026_11058"
    INDEX 01 01:33:53
  TRACK 75 AUDIO
    TITLE "0:"
    INDEX 01 01:35:21
  TRACK 76 AUDIO
    TITLE "11:cjc026_11059"
    INDEX 01 01:35:59
  TRACK 77 AUDIO
    TITLE "0:"
    INDEX 01 01:37:20
  TRACK 78 AUDIO
    TITLE "12:cjc026_11060"
    INDEX 01 01:37:55
  TRACK 79 AUDIO
    TITLE "0:"
    INDEX 01 01:39:24
